<svg width="30" height="30" viewBox="0 0 30 30" fill="none" xmlns="http://www.w3.org/2000/svg">
<path d="M1.07141 13.9286V22.5C1.07141 23.6835 2.0308 24.6428 3.21427 24.6428H16.0714C17.2549 24.6428 18.2143 23.6835 18.2143 22.5V13.9286C18.2143 12.7451 17.2549 11.7857 16.0714 11.7857H3.21427C2.0308 11.7857 1.07141 12.7451 1.07141 13.9286Z" stroke="#E63C4B" stroke-width="2" stroke-linecap="round" stroke-linejoin="round"/>
<path d="M6.42859 28.9285H12.8572" stroke="#E63C4B" stroke-width="2" stroke-linecap="round" stroke-linejoin="round"/>
<path d="M9.64282 28.9285V24.6428" stroke="#E63C4B" stroke-width="2" stroke-linecap="round" stroke-linejoin="round"/>
<path d="M16.0714 7.49997V6.42855C16.0714 5.83682 16.5511 5.35712 17.1428 5.35712H27.8571C28.4488 5.35712 28.9286 5.83682 28.9286 6.42855V27.8571C28.9286 28.4488 28.4488 28.9285 27.8571 28.9285H19.2857" stroke="#E63C4B" stroke-width="2" stroke-linecap="round" stroke-linejoin="round"/>
<path d="M24.375 10.4469C24.2269 10.4469 24.1069 10.3269 24.1069 10.1788C24.1069 10.0307 24.2269 9.91071 24.375 9.91071" stroke="#E63C4B" stroke-width="2" stroke-linecap="round" stroke-linejoin="round"/>
<path d="M24.3746 10.4469C24.5227 10.4469 24.6427 10.3269 24.6427 10.1788C24.6427 10.0307 24.5227 9.91071 24.3746 9.91071" stroke="#E63C4B" stroke-width="2" stroke-linecap="round" stroke-linejoin="round"/>
<path d="M22.5 15H28.9286" stroke="#E63C4B" stroke-width="2" stroke-linecap="round" stroke-linejoin="round"/>
</svg>
