<svg width="30" height="30" viewBox="0 0 30 30" fill="none" xmlns="http://www.w3.org/2000/svg">
<g clip-path="url(#clip0_6_9)">
<path d="M25.6144 11.7478C25.6144 17.6132 20.8595 22.3682 14.994 22.3682C9.12852 22.3682 4.37363 17.6132 4.37363 11.7478C4.37363 5.88229 9.12852 1.12738 14.994 1.12738C20.8595 1.12738 25.6144 5.88229 25.6144 11.7478Z" stroke="#E63C4B" stroke-width="2" stroke-linecap="round" stroke-linejoin="round"/>
<path d="M15.4286 5.98148L16.8915 8.92437C16.9242 8.99879 16.9761 9.06321 17.0419 9.11103C17.1076 9.15884 17.1849 9.18835 17.2658 9.19653L20.5149 9.68986C20.6077 9.70195 20.6953 9.74024 20.7672 9.80024C20.8391 9.86024 20.8925 9.93948 20.921 10.0287C20.9496 10.1179 20.9521 10.2134 20.9284 10.304C20.9047 10.3946 20.8556 10.4766 20.787 10.5404L18.3885 12.8199C18.3527 12.8881 18.334 12.964 18.334 13.041C18.334 13.118 18.3527 13.1939 18.3885 13.2622L18.8478 16.4942C18.8674 16.5876 18.8595 16.6847 18.825 16.7737C18.7905 16.8628 18.7309 16.9398 18.6535 16.9957C18.576 17.0515 18.4841 17.0836 18.3887 17.0882C18.2934 17.0928 18.1987 17.0697 18.1163 17.0216L15.2245 15.4906C15.1496 15.4568 15.0684 15.4393 14.9863 15.4393C14.9042 15.4393 14.823 15.4568 14.7481 15.4906L11.8563 17.0216C11.7739 17.0697 11.6792 17.0928 11.5839 17.0882C11.4885 17.0836 11.3966 17.0515 11.3191 16.9957C11.2417 16.9398 11.1821 16.8628 11.1477 16.7737C11.1132 16.6847 11.1052 16.5876 11.1248 16.4942L11.6692 13.2622C11.6926 13.1871 11.6971 13.1075 11.6822 13.0303C11.6674 12.9532 11.6337 12.8809 11.5841 12.8199L9.18559 10.5234C9.12197 10.459 9.07731 10.3782 9.05651 10.2901C9.03572 10.2019 9.0396 10.1098 9.06771 10.0237C9.0958 9.93762 9.14708 9.86093 9.21587 9.80204C9.28468 9.74315 9.36836 9.70435 9.45776 9.68986L12.7068 9.21355C12.7877 9.20536 12.865 9.17586 12.9307 9.12805C12.9965 9.08022 13.0484 9.01581 13.0811 8.94138L14.544 5.99849C14.5832 5.91518 14.6448 5.84448 14.7221 5.79441C14.7993 5.74433 14.889 5.71683 14.981 5.71506C15.073 5.7133 15.1637 5.7373 15.2428 5.7844C15.3219 5.83148 15.3863 5.89975 15.4286 5.98148Z" stroke="#E63C4B" stroke-width="2" stroke-linecap="round" stroke-linejoin="round"/>
<path d="M5.79425 16.9571L1.07135 25.1374L6.17457 23.77L7.54197 28.8732L11.6398 21.7757" stroke="#E63C4B" stroke-width="2" stroke-linecap="round" stroke-linejoin="round"/>
<path d="M24.2055 16.9571L28.9284 25.1374L23.8251 23.77L22.4578 28.8732L18.36 21.7757" stroke="#E63C4B" stroke-width="2" stroke-linecap="round" stroke-linejoin="round"/>
</g>
<defs>
<clipPath id="clip0_6_9">
<rect width="30" height="30" fill="white"/>
</clipPath>
</defs>
</svg>
