<svg width="15" height="15" viewBox="0 0 15 15" fill="none" xmlns="http://www.w3.org/2000/svg">
<path d="M2.11993 8.16493C2.02048 8.12674 1.91925 8.08787 1.81568 8.04925C1.70508 7.99447 1.57097 7.93122 1.44188 7.87035C1.33517 7.82002 1.23189 7.77132 1.14819 7.73036C0.922593 7.61998 0.740683 7.52057 0.6133 7.42635C0.582604 7.40365 0.559241 7.38427 0.541581 7.36833C1.74329 6.57286 3.05187 5.88289 4.35116 5.19782C4.67057 5.0294 4.98941 4.86129 5.30597 4.69197C8.05218 3.29338 10.8044 1.92155 13.5822 0.644999C13.8298 0.546648 14.1065 0.480809 14.2978 0.504882C14.3826 0.515547 14.416 0.539519 14.4304 0.553896C14.4421 0.565575 14.4811 0.610074 14.4989 0.743696C14.4611 1.68291 14.3476 2.60803 14.2315 3.55521C14.1821 3.95834 14.1322 4.36546 14.0874 4.77936C13.7703 7.32091 13.4113 9.85486 13.0518 12.3927C12.9868 12.8519 12.9217 13.3113 12.8569 13.7709C12.8064 14.1144 12.6083 14.3464 12.4055 14.4445C12.2152 14.5365 12.0201 14.519 11.8538 14.3587L11.8389 14.3443L11.8228 14.3312C11.4298 14.0106 11.0366 13.6914 10.6439 13.3725C9.45425 12.4063 8.26825 11.4432 7.09897 10.4557C7.00175 10.3158 6.98166 10.1322 7.05775 9.88728C7.1416 9.61729 7.32559 9.34642 7.50758 9.16788L7.52474 9.15105L7.54021 9.13264C8.061 8.51293 8.59325 7.93207 9.13186 7.34427C9.2631 7.20104 9.39471 7.05741 9.52663 6.91269C10.1961 6.17827 10.8677 5.4222 11.504 4.58208L11.5523 4.51821L11.5783 4.44242C11.6268 4.30101 11.6636 4.1587 11.6719 4.02409C11.6795 3.90179 11.6694 3.68837 11.5104 3.51234C11.3352 3.31833 11.106 3.30406 10.9759 3.31772C10.8476 3.33118 10.7325 3.37683 10.6506 3.41513C10.3766 3.54327 10.042 3.80651 9.8753 3.93764C9.85248 3.95558 9.83282 3.97106 9.81688 3.98337L9.80972 3.9889L9.80277 3.99468C9.35018 4.37127 8.90369 4.75064 8.45948 5.12808C7.12021 6.26604 5.80158 7.38646 4.39845 8.36011C4.06268 8.58165 3.68848 8.61288 3.24311 8.52626C2.87389 8.45446 2.51067 8.31498 2.11993 8.16493ZM0.489587 7.42517C0.48941 7.42519 0.490099 7.42365 0.492185 7.4205C0.490806 7.42358 0.489763 7.42516 0.489587 7.42517Z"/>
</svg>
