<svg width="436" height="436" viewBox="0 0 436 436" fill="none" xmlns="http://www.w3.org/2000/svg">
<path d="M411.235 185.047L359.7 176.624C356.683 166.282 352.558 156.341 347.396 146.932L377.48 104.056C379.913 100.594 379.494 95.8764 376.503 92.8767L342.591 58.9821C339.566 55.965 334.804 55.5726 331.334 58.0752L289.103 88.4295C279.607 83.1801 269.579 79.0119 259.176 75.9861L250.186 24.6602C249.453 20.492 245.834 17.44 241.596 17.44H193.636C189.364 17.44 185.719 20.5356 185.03 24.7561L176.693 75.803C166.229 78.8114 156.184 82.9359 146.723 88.1156L104.605 58.0316C101.126 55.5464 96.3909 55.9475 93.365 58.9559L59.4704 92.8506C56.4794 95.8415 56.0609 100.55 58.4938 104.012L88.133 146.418C82.8575 155.966 78.6544 166.072 75.5937 176.589L24.7474 185.056C20.5443 185.753 17.4574 189.398 17.4574 193.654V241.614C17.4574 245.843 20.492 249.462 24.6514 250.203L75.4978 259.219C78.541 269.71 82.7441 279.816 88.0371 289.391L58.0316 331.36C55.5551 334.822 55.9475 339.574 58.9559 342.6L92.8593 376.53C95.8503 379.521 100.568 379.939 104.03 377.506L146.496 347.762C156.027 353.003 166.099 357.163 176.536 360.18L185.047 411.288C185.736 415.482 189.372 418.56 193.636 418.56H241.596C245.826 418.56 249.444 415.525 250.177 411.366L259.289 360.005C269.744 356.927 279.764 352.741 289.199 347.492L331.97 377.498C335.441 379.948 340.15 379.521 343.149 376.53L377.053 342.6C380.07 339.574 380.462 334.804 377.96 331.334L347.457 288.981C352.628 279.563 356.735 269.605 359.726 259.263L411.331 250.203C415.508 249.47 418.543 245.843 418.543 241.614V193.654C418.551 189.381 415.456 185.736 411.235 185.047ZM218 279.04C184.288 279.04 156.96 251.712 156.96 218C156.96 184.288 184.288 156.96 218 156.96C251.712 156.96 279.04 184.288 279.04 218C279.04 251.712 251.712 279.04 218 279.04Z" fill="#E63C4B" fill-opacity="0.15"/>
</svg>
