<svg width="410" height="305" viewBox="0 0 410 305" fill="none" xmlns="http://www.w3.org/2000/svg">
<path d="M298.069 30.9939L267.789 15.3777C266.378 17.16 263.974 17.8461 261.809 17.0855L245.519 48.6161C247.289 49.6602 248.259 51.5619 248.147 53.5158L259.42 59.3327C260.958 58.4154 262.921 58.2737 264.631 59.1612C266.341 60.0486 267.363 61.7191 267.505 63.5089L278.995 69.4303C280.018 67.7076 281.862 66.7455 283.765 66.8052L299.51 36.341C298.092 34.9688 297.509 32.9179 298.069 31.0013V30.9939Z" fill="#E0E0E0"/>
<path d="M295.679 33.3951L266.921 18.5675C265.939 18.0613 264.732 18.446 264.225 19.4269L249.382 48.1547C248.875 49.1356 249.26 50.3411 250.242 50.8474L279.001 65.6749C279.983 66.1812 281.19 65.7964 281.696 64.8155L296.54 36.0878C297.047 35.1069 296.661 33.9013 295.679 33.3951Z" fill="#F5F5F5"/>
<path d="M279.749 66.1714C279.323 66.1714 278.898 66.067 278.51 65.8656L270.044 61.5029C269.857 61.406 269.79 61.1822 269.887 61.0033C269.984 60.8168 270.208 60.7497 270.387 60.8466L278.853 65.2093C279.323 65.448 279.853 65.4927 280.354 65.3361C280.854 65.1795 281.264 64.829 281.503 64.3666L296.031 36.2441C296.27 35.7742 296.315 35.2448 296.158 34.7451C296.001 34.2454 295.65 33.8353 295.188 33.5966L267.035 19.0842C266.072 18.5845 264.877 18.9649 264.377 19.9269L249.849 48.0494C249.349 49.0115 249.73 50.2047 250.693 50.7043L259.659 55.328C259.846 55.425 259.913 55.6487 259.816 55.8277C259.719 56.0141 259.495 56.0813 259.316 55.9843L250.35 51.3606C249.021 50.6745 248.498 49.0338 249.185 47.7064L263.713 19.5838C264.4 18.2564 266.042 17.7269 267.371 18.4204L295.523 32.9329C296.166 33.2685 296.643 33.8278 296.867 34.5214C297.091 35.2149 297.024 35.9458 296.696 36.5946L282.168 64.7171C281.832 65.3585 281.272 65.8358 280.577 66.0595C280.309 66.149 280.025 66.1863 279.749 66.1863V66.1714Z" fill="#EBEBEB"/>
<path d="M263.735 37.4522C264.661 35.6624 266.699 35.0509 268.543 35.998C269.431 36.4604 270.081 37.1688 270.32 38.0414L269.7 38.2427C269.461 37.4821 268.969 36.9451 268.267 36.5872C266.789 35.8265 265.124 36.3336 264.377 37.7804C263.631 39.2271 264.183 40.8827 265.654 41.6434C266.356 42.0014 267.072 42.0983 267.841 41.8447L268.043 42.4637C267.199 42.7769 266.236 42.6651 265.34 42.2027C263.511 41.2556 262.824 39.2421 263.75 37.4522H263.735Z" fill="#E0E0E0"/>
<path d="M275.822 42.4711C275.15 43.7688 273.806 44.0671 272.253 43.2691L270.611 42.4264L269.618 44.3504L268.969 44.0149L272.119 37.9146L274.403 39.0928C275.956 39.8908 276.494 41.1661 275.814 42.4711H275.822ZM275.18 42.1355C275.68 41.1586 275.329 40.2711 274.105 39.6373L272.485 38.802L270.91 41.8522L272.53 42.6874C273.754 43.3138 274.687 43.0901 275.18 42.1355Z" fill="#E0E0E0"/>
<path d="M276.486 44.589L278.293 41.0914L278.943 41.427L277.151 44.8948C276.404 46.3416 276.74 47.3558 277.927 47.9673C279.122 48.5863 280.145 48.2731 280.891 46.8263L282.683 43.3585L283.31 43.6792L281.503 47.1768C280.6 48.9294 279.189 49.347 277.621 48.5416C276.061 47.7361 275.576 46.3416 276.479 44.589H276.486Z" fill="#E0E0E0"/>
<path d="M58.4402 19.8894L65.5325 19.4792L78.4628 0L112.521 22.5667L78.2687 74.1433L39.8212 48.6682L50.9373 31.9334L55.3271 34.8418L60.2095 27.4887L55.4764 24.3565L58.4402 19.8894Z" fill="#EBEBEB"/>
<path d="M79.202 63.2253C79.1423 63.3148 72.819 59.228 65.0772 54.0972C57.3354 48.9664 51.1017 44.7379 51.1614 44.6484C51.2212 44.5589 57.5445 48.6457 65.2862 53.7765C73.028 58.9073 79.2543 63.1358 79.1945 63.2253H79.202Z" fill="#E0E0E0"/>
<path d="M65.4728 38.7422L67.1301 37.6982C67.5034 38.6975 68.3321 39.7714 69.3549 40.45C70.5269 41.2256 71.2586 41.151 71.6095 40.629C72.6696 39.0331 66.9808 36.8405 69.0786 33.6785C70.0417 32.2318 72.0126 31.7992 74.4389 33.4101C75.5139 34.1185 76.4397 35.1029 76.9025 36.1246L75.2974 37.2209C74.8047 36.2439 74.1328 35.4833 73.3788 34.9836C72.2067 34.208 71.4676 34.3497 71.1093 34.8867C70.0641 36.4602 75.7454 38.6602 73.67 41.7924C72.7218 43.2168 70.736 43.6493 68.2948 42.0385C66.9435 41.1436 65.8461 39.8385 65.4728 38.7497V38.7422Z" fill="#E0E0E0"/>
<path d="M79.0228 36.6541L82.8974 39.2195C85.6895 41.069 86.4883 44.0147 84.7712 46.595C83.0542 49.1754 80.0306 49.5855 77.2385 47.736L73.3639 45.1706L79.0228 36.6466V36.6541ZM78.2165 46.0581C79.9112 47.1767 81.688 46.9082 82.7779 45.275C83.8604 43.6418 83.42 41.8967 81.7253 40.7781L79.9186 39.5849L76.4098 44.8723L78.2165 46.0655V46.0581Z" fill="#E0E0E0"/>
<g opacity="0.4">
<path d="M80.7477 6.4814L79.0432 5.35181L71.7053 16.4011L73.4099 17.5307L80.7477 6.4814Z" fill="white"/>
</g>
<g opacity="0.4">
<path d="M83.7264 8.45321L82.0219 7.32361L74.684 18.3729L76.3886 19.5025L83.7264 8.45321Z" fill="white"/>
</g>
<g opacity="0.4">
<path d="M86.7093 10.4262L85.0047 9.29663L77.6668 20.3459L79.3714 21.4755L86.7093 10.4262Z" fill="white"/>
</g>
<g opacity="0.4">
<path d="M89.6805 12.3979L87.976 11.2683L80.6381 22.3176L82.3427 23.4472L89.6805 12.3979Z" fill="white"/>
</g>
<g opacity="0.4">
<path d="M92.6592 14.3773L90.9547 13.2477L83.6168 24.297L85.3214 25.4266L92.6592 14.3773Z" fill="white"/>
</g>
<g opacity="0.4">
<path d="M95.6421 16.3427L93.9376 15.2131L86.5997 26.2624L88.3043 27.3921L95.6421 16.3427Z" fill="white"/>
</g>
<g opacity="0.4">
<path d="M98.6208 18.3221L96.9163 17.1925L89.5784 28.2418L91.283 29.3714L98.6208 18.3221Z" fill="white"/>
</g>
<g opacity="0.4">
<path d="M101.604 20.295L99.899 19.1654L92.5612 30.2147L94.2658 31.3443L101.604 20.295Z" fill="white"/>
</g>
<g opacity="0.4">
<path d="M104.575 22.2669L102.87 21.1373L95.5325 32.1866L97.2371 33.3162L104.575 22.2669Z" fill="white"/>
</g>
<g opacity="0.4">
<path d="M107.547 24.2418L105.843 23.1122L98.5049 34.1615L100.21 35.2911L107.547 24.2418Z" fill="white"/>
</g>
<path d="M390.381 39.8756L300.264 39.8234C289.417 39.8234 280.622 48.5935 280.622 59.4294L280.578 285.118C280.578 295.947 289.357 304.724 300.197 304.732L390.313 304.784C401.161 304.784 409.955 296.014 409.955 285.178L410 59.489C410 48.6606 401.221 39.883 390.381 39.8756ZM345.222 80.1987C344.333 80.1987 343.617 79.4828 343.617 78.5954C343.617 77.7079 344.333 76.992 345.222 76.992C346.11 76.992 346.827 77.7079 346.827 78.5954C346.827 79.4828 346.11 80.1987 345.222 80.1987ZM345.289 73.7405C341.69 73.7405 338.764 70.8246 338.764 67.2225C338.764 63.6205 341.683 60.7046 345.289 60.7046C348.895 60.7046 351.814 63.6205 351.814 67.2225C351.814 70.8246 348.895 73.7405 345.289 73.7405Z" fill="#263238"/>
<path d="M350.052 93.4733C350.052 95.6211 350.022 97.3587 349.985 97.3587C349.947 97.3587 349.917 95.6211 349.917 93.4733C349.917 91.3255 349.947 89.5879 349.985 89.5879C350.022 89.5879 350.052 91.3255 350.052 93.4733Z" fill="black"/>
<path d="M390.291 48.4517H372.822L321.795 48.4144H315.651L300.361 48.3995C292.769 48.3995 286.61 54.5446 286.602 62.129L286.557 282.419C286.557 290.003 292.709 296.148 300.294 296.155L390.231 296.208C397.824 296.208 403.983 290.063 403.99 282.478L404.035 62.1886C404.035 54.6042 397.884 48.4592 390.299 48.4517H390.291ZM345.229 80.1987C344.341 80.1987 343.624 79.4828 343.624 78.5953C343.624 77.7078 344.341 76.9919 345.229 76.9919C346.117 76.9919 346.834 77.7078 346.834 78.5953C346.834 79.4828 346.117 80.1987 345.229 80.1987ZM345.296 73.7404C341.698 73.7404 338.771 70.8245 338.771 67.2225C338.771 63.6205 341.69 60.7046 345.296 60.7046C348.902 60.7046 351.821 63.6205 351.821 67.2225C351.821 70.8245 348.902 73.7404 345.296 73.7404Z" fill="#455A64"/>
<path d="M400.22 268.242H290.283V111.536H400.22V268.242ZM291.029 267.496H399.474V112.281H291.029V267.496Z" fill="#263238"/>
<path d="M391.366 288.803C391.366 288.803 391.493 288.788 391.754 288.765C391.881 288.758 392.046 288.743 392.232 288.736C392.419 288.706 392.635 288.668 392.882 288.631C393.374 288.542 393.972 288.37 394.658 288.094C395.33 287.788 396.077 287.378 396.816 286.759C397.555 286.14 398.264 285.312 398.824 284.276C399.377 283.239 399.75 281.979 399.802 280.592C399.81 277.803 399.757 274.588 399.735 271.009L399.847 271.121C377.667 271.136 340.847 271.165 299.204 271.203C296.278 271.203 293.373 271.203 290.663 271.203L290.858 271.009C290.873 273.015 290.88 275.006 290.895 276.982C290.895 277.974 290.91 278.959 290.91 279.936C290.91 280.912 290.999 281.86 291.291 282.777C291.865 284.597 293.075 286.178 294.628 287.222C296.203 288.273 298.069 288.706 299.943 288.624C307.476 288.624 314.717 288.631 321.601 288.639C335.375 288.653 347.715 288.668 358.055 288.683C368.387 288.706 376.711 288.728 382.467 288.743C385.334 288.758 387.551 288.773 389.074 288.78C389.821 288.788 390.396 288.795 390.791 288.795C391.18 288.795 391.374 288.818 391.374 288.818C391.374 288.818 391.18 288.832 390.791 288.84C390.396 288.84 389.821 288.847 389.074 288.855C387.559 288.862 385.334 288.877 382.467 288.892C376.711 288.907 368.387 288.929 358.055 288.952C347.715 288.967 335.375 288.982 321.601 288.997C314.717 288.997 307.468 289.004 299.943 289.011C298.054 289.101 296.054 288.646 294.419 287.55C292.791 286.461 291.529 284.805 290.925 282.904C290.619 281.957 290.522 280.935 290.522 279.95C290.522 278.966 290.507 277.982 290.499 276.997C290.484 275.021 290.469 273.03 290.462 271.024V270.83H290.656C293.366 270.83 296.27 270.83 299.197 270.83C340.839 270.867 377.659 270.897 399.84 270.912H399.952V271.024C399.952 274.611 399.996 277.81 399.966 280.614C399.907 282.024 399.519 283.306 398.944 284.358C398.369 285.409 397.637 286.245 396.883 286.864C396.129 287.483 395.36 287.893 394.681 288.191C393.987 288.46 393.382 288.624 392.882 288.698C392.635 288.735 392.411 288.765 392.225 288.788C392.038 288.788 391.881 288.803 391.747 288.803C391.493 288.81 391.359 288.803 391.359 288.803H391.366Z" fill="#263238"/>
<path d="M355.106 73.1811C355.106 73.1811 355.158 72.8977 355.24 72.3608C355.315 71.8238 355.405 71.0184 355.419 69.9893C355.434 68.9527 355.397 67.6849 355.188 66.2306C354.979 64.7839 354.628 63.1358 353.889 61.4429C353.157 59.7798 351.978 58.0199 350.097 56.9758C348.223 55.9094 345.767 55.8273 343.437 56.3866C342.265 56.6849 341.123 57.1995 340.1 57.9304C339.085 58.6761 338.182 59.6307 337.532 60.7642C336.868 61.8903 336.472 63.1954 336.173 64.5229C335.882 65.8578 335.718 67.2374 335.703 68.6395C335.681 70.0415 335.808 71.4286 336.091 72.7635C336.367 74.0984 336.86 75.3587 337.39 76.5743C338.48 78.9906 339.884 81.1533 341.332 83.1295C342.056 84.1139 342.788 85.0685 343.504 85.9709C344.221 86.8434 345.042 87.701 346.065 87.8875C346.565 87.9695 347.058 87.8278 347.469 87.5295C347.879 87.2461 348.23 86.8658 348.536 86.4855C349.156 85.7024 349.619 84.8522 350.082 84.0468C351.918 80.8251 353.24 78.1255 354.016 76.2089C354.404 75.2469 354.68 74.4937 354.845 73.9716C354.927 73.733 354.987 73.5391 355.039 73.3825C355.084 73.2482 355.113 73.1811 355.113 73.1811C355.113 73.1811 355.113 73.2557 355.076 73.3899C355.039 73.5242 354.994 73.733 354.919 73.994C354.77 74.5235 354.524 75.2916 354.15 76.2611C353.411 78.2075 352.127 80.937 350.313 84.1811C349.858 84.9865 349.402 85.859 348.76 86.6719C348.439 87.0746 348.081 87.4699 347.633 87.7905C347.2 88.1187 346.58 88.3126 345.998 88.2082C344.818 87.9844 343.967 87.0671 343.228 86.1871C342.497 85.2699 341.772 84.3302 341.033 83.3384C339.578 81.3621 338.152 79.177 337.032 76.7309C336.487 75.5079 335.979 74.2177 335.703 72.8455C335.412 71.4808 335.285 70.0639 335.307 68.6395C335.322 67.2076 335.494 65.8056 335.793 64.4408C335.942 63.7622 336.129 63.091 336.352 62.4422C336.562 61.7934 336.853 61.1595 337.204 60.5703C337.89 59.392 338.831 58.4002 339.884 57.6321C340.951 56.8714 342.138 56.3419 343.355 56.0436C345.759 55.4768 348.297 55.5738 350.261 56.6999C352.232 57.811 353.426 59.6381 354.15 61.3459C354.882 63.0761 355.225 64.7466 355.412 66.2083C355.599 67.6774 355.621 68.9601 355.576 69.9967C355.539 71.0408 355.427 71.8388 355.322 72.3757C355.263 72.6442 355.218 72.8455 355.181 72.9798C355.143 73.114 355.121 73.1811 355.113 73.1811H355.106Z" fill="#263238"/>
<path d="M390.56 52.792C390.56 52.792 390.918 52.7845 391.62 52.8367C392.314 52.9188 393.352 53.0903 394.591 53.6795C395.218 53.9554 395.86 54.3805 396.525 54.895C397.167 55.4394 397.809 56.1106 398.369 56.9384C398.929 57.7662 399.377 58.7581 399.653 59.8767C399.944 60.9953 399.936 62.2333 399.936 63.5086C399.951 73.7851 399.974 88.5959 400.004 106.763V106.912H399.854C372.889 107.016 337.898 107.15 299.779 107.292C296.658 107.299 293.56 107.314 290.671 107.322H290.477V107.128C290.477 96.6501 290.477 86.4481 290.477 76.6115C290.477 71.697 290.477 66.8719 290.477 62.1438C290.462 59.735 291.402 57.371 293.015 55.6557C294.613 53.9256 296.852 52.8591 299.137 52.6652C317.188 52.5906 333.336 52.6652 346.879 52.6652C360.414 52.6876 371.336 52.71 378.876 52.7249C382.639 52.7398 385.558 52.7547 387.544 52.7622C388.529 52.7696 389.276 52.7771 389.791 52.7771C390.298 52.7771 390.56 52.7995 390.56 52.7995C390.56 52.7995 390.298 52.8144 389.791 52.8218C389.276 52.8218 388.522 52.8293 387.544 52.8367C385.558 52.8442 382.639 52.8591 378.876 52.874C371.336 52.889 360.414 52.9113 346.879 52.9337C333.336 52.9561 317.181 52.9859 299.167 53.0157C296.964 53.2022 294.814 54.2313 293.276 55.9018C291.723 57.5574 290.828 59.8245 290.843 62.1513C290.843 66.8719 290.843 71.697 290.843 76.619C290.843 86.4555 290.843 96.6575 290.843 107.135L290.648 106.942C293.538 106.934 296.636 106.919 299.756 106.912C337.875 106.8 372.874 106.695 399.832 106.621L399.683 106.77C399.713 88.6033 399.735 73.8 399.75 63.516C399.757 62.2333 399.772 61.0177 399.496 59.9215C399.235 58.8252 398.794 57.8408 398.249 57.0205C397.704 56.2001 397.077 55.5364 396.443 54.992C395.786 54.4774 395.159 54.0523 394.539 53.7689C393.315 53.1798 392.284 52.9934 391.597 52.8964C391.254 52.8517 390.985 52.8517 390.814 52.8367C390.634 52.8218 390.545 52.8144 390.545 52.8144L390.56 52.792Z" fill="#263238"/>
<path d="M379.317 164.693H275.038C272.906 164.693 271.178 166.419 271.178 168.549V300.019C271.178 302.148 272.906 303.874 275.038 303.874H379.317C381.448 303.874 383.176 302.148 383.176 300.019V168.549C383.176 166.419 381.448 164.693 379.317 164.693Z" fill="#263238"/>
<path d="M383.176 176.238C383.176 176.342 358.055 176.432 327.073 176.432C296.091 176.432 270.962 176.342 270.962 176.238C270.962 176.133 296.076 176.044 327.073 176.044C358.07 176.044 383.176 176.133 383.176 176.238Z" fill="#455A64"/>
<path d="M302.526 176.081C302.422 176.081 302.332 173.568 302.332 170.473C302.332 167.378 302.422 164.865 302.526 164.865C302.631 164.865 302.72 167.378 302.72 170.473C302.72 173.568 302.631 176.081 302.526 176.081Z" fill="#455A64"/>
<path d="M344.901 176.237C344.796 176.237 344.707 173.799 344.707 170.793C344.707 167.788 344.796 165.349 344.901 165.349C345.005 165.349 345.095 167.788 345.095 170.793C345.095 173.799 345.005 176.237 344.901 176.237Z" fill="#455A64"/>
<path d="M360.526 164.693H357.629V173.806H360.526V164.693Z" fill="#E0E0E0"/>
<path d="M365.035 164.693H362.139V173.806H365.035V164.693Z" fill="#E0E0E0"/>
<path d="M369.507 164.693H366.61V173.806H369.507V164.693Z" fill="#E0E0E0"/>
<path d="M334.098 214.249L320.13 235.607H329.2L323.056 254.318L340.615 230.059H331.261L334.098 214.249Z" fill="#E0E0E0"/>
<path d="M330.373 267.071C312.276 267.071 297.554 252.364 297.554 234.287C297.554 216.21 312.276 201.504 330.373 201.504C348.469 201.504 363.191 216.21 363.191 234.287C363.191 252.364 348.469 267.071 330.373 267.071ZM330.373 202.242C312.687 202.242 298.301 216.613 298.301 234.28C298.301 251.947 312.687 266.318 330.373 266.318C348.059 266.318 362.445 251.947 362.445 234.28C362.445 216.613 348.059 202.242 330.373 202.242Z" fill="#E0E0E0"/>
<path d="M296.904 57.222H279.435C277.091 57.2071 275.195 59.1908 275.195 61.6369V64.8064C275.195 67.2525 273.291 69.2362 270.947 69.2362L236.889 69.2138C234.545 69.2138 232.649 67.2301 232.649 64.784V61.6145C232.649 59.1684 230.752 57.1847 228.408 57.1847H222.264L206.975 57.1698C199.382 57.1698 193.223 63.3148 193.216 70.8992V111.222L202.533 120.865V177.356H193.193L193.171 291.189C193.171 298.773 199.322 304.918 206.907 304.926L296.845 304.978C304.437 304.978 310.596 298.833 310.604 291.249L310.649 70.9589C310.649 63.3745 304.497 57.2295 296.912 57.222H296.904ZM205.056 64.7914C206.452 64.7914 207.587 65.925 207.587 67.3196C207.587 68.7141 206.452 69.8477 205.056 69.8477C203.66 69.8477 202.525 68.7141 202.525 67.3196C202.525 65.925 203.66 64.7914 205.056 64.7914ZM202.951 112.438C202.092 112.438 201.398 111.744 201.398 110.887C201.398 110.029 202.092 109.336 202.951 109.336C203.809 109.336 204.503 110.029 204.503 110.887C204.503 111.744 203.809 112.438 202.951 112.438ZM210.252 292.36C209.274 293.896 207.228 294.351 205.69 293.366C204.153 292.39 203.697 290.346 204.683 288.81C205.661 287.274 207.706 286.819 209.244 287.803C210.782 288.78 211.237 290.823 210.252 292.36ZM262.511 95.6733H244.683V77.8646H262.511V95.6733ZM299.002 293.225C298.024 294.761 295.979 295.216 294.441 294.232C292.903 293.255 292.448 291.211 293.433 289.675C294.411 288.139 296.457 287.684 297.994 288.668C299.532 289.645 299.988 291.689 299.002 293.225ZM301.018 93.1154C299.711 93.1154 298.651 92.0564 298.651 90.7513C298.651 89.4462 299.711 88.3873 301.018 88.3873C302.324 88.3873 303.385 89.4462 303.385 90.7513C303.385 92.0564 302.324 93.1154 301.018 93.1154Z" fill="#E8505B"/>
<path d="M249.67 69.2213H247.662V74.2477H249.67V69.2213Z" fill="#F5F5F5"/>
<path d="M254.582 69.2213H252.574V74.2477H254.582V69.2213Z" fill="#F5F5F5"/>
<path d="M259.487 69.2213H257.479V74.2477H259.487V69.2213Z" fill="#F5F5F5"/>
<g opacity="0.3">
<path d="M225.392 57.1698H211.29V90.7513H225.392V57.1698Z" fill="black"/>
</g>
<g opacity="0.3">
<path d="M296.263 82.4512H272.515V117.74H296.263V82.4512Z" fill="black"/>
</g>
<g opacity="0.3">
<path d="M267.147 141.784H257.875V151.046H267.147V141.784Z" fill="black"/>
</g>
<g opacity="0.3">
<path d="M230.066 127.137H223.854V133.342H230.066V127.137Z" fill="black"/>
</g>
<g opacity="0.3">
<path d="M230.066 118.24H223.854V124.445H230.066V118.24Z" fill="black"/>
</g>
<g opacity="0.3">
<path d="M233.298 109.343H220.629V115.548H233.298V109.343Z" fill="black"/>
</g>
<g opacity="0.3">
<path d="M244.683 136.205H231.185V162.359H244.683V136.205Z" fill="black"/>
</g>
<g opacity="0.1">
<path d="M272.515 117.74L286.244 136.205V149.286H267.147V151.046H284.392V239.135H296.262V134.661V117.74H272.515Z" fill="black"/>
</g>
<g opacity="0.1">
<path d="M220.629 109.343L238.569 103.944L249.827 107.829V139.688L244.683 148.786V136.205V110.894L237.934 107.024L233.298 109.343H220.629Z" fill="black"/>
</g>
<path d="M300.928 255.407H284.422V257.533H300.928V255.407Z" fill="#F5F5F5"/>
<path d="M300.928 260.501H284.422V262.626H300.928V260.501Z" fill="#F5F5F5"/>
<g opacity="0.3">
<path d="M248.199 231.401H216.366V277.512H248.199V231.401Z" fill="black"/>
</g>
<path d="M220.853 229.761C220.958 229.761 221.047 230.089 221.047 230.499C221.047 230.909 220.958 231.237 220.853 231.237C220.749 231.237 220.659 230.909 220.659 230.499C220.659 230.089 220.749 229.761 220.853 229.761Z" fill="white"/>
<path d="M226.937 229.761C227.042 229.761 227.132 230.089 227.132 230.499C227.132 230.909 227.042 231.237 226.937 231.237C226.833 231.237 226.743 230.909 226.743 230.499C226.743 230.089 226.833 229.761 226.937 229.761Z" fill="white"/>
<path d="M233.022 229.761C233.126 229.761 233.216 230.089 233.216 230.499C233.216 230.909 233.126 231.237 233.022 231.237C232.917 231.237 232.828 230.909 232.828 230.499C232.828 230.089 232.917 229.761 233.022 229.761Z" fill="white"/>
<path d="M239.106 229.761C239.211 229.761 239.3 230.089 239.3 230.499C239.3 230.909 239.211 231.237 239.106 231.237C239.002 231.237 238.912 230.909 238.912 230.499C238.912 230.089 239.002 229.761 239.106 229.761Z" fill="white"/>
<path d="M245.198 229.761C245.303 229.761 245.392 230.089 245.392 230.499C245.392 230.909 245.303 231.237 245.198 231.237C245.094 231.237 245.004 230.909 245.004 230.499C245.004 230.089 245.094 229.761 245.198 229.761Z" fill="white"/>
<path d="M220.853 277.706C220.958 277.706 221.047 278.034 221.047 278.444C221.047 278.854 220.958 279.182 220.853 279.182C220.749 279.182 220.659 278.854 220.659 278.444C220.659 278.034 220.749 277.706 220.853 277.706Z" fill="white"/>
<path d="M226.937 277.706C227.042 277.706 227.132 278.034 227.132 278.444C227.132 278.854 227.042 279.182 226.937 279.182C226.833 279.182 226.743 278.854 226.743 278.444C226.743 278.034 226.833 277.706 226.937 277.706Z" fill="white"/>
<path d="M233.022 277.706C233.126 277.706 233.216 278.034 233.216 278.444C233.216 278.854 233.126 279.182 233.022 279.182C232.917 279.182 232.828 278.854 232.828 278.444C232.828 278.034 232.917 277.706 233.022 277.706Z" fill="white"/>
<path d="M239.106 277.706C239.211 277.706 239.3 278.034 239.3 278.444C239.3 278.854 239.211 279.182 239.106 279.182C239.002 279.182 238.912 278.854 238.912 278.444C238.912 278.034 239.002 277.706 239.106 277.706Z" fill="white"/>
<path d="M245.198 277.706C245.303 277.706 245.392 278.034 245.392 278.444C245.392 278.854 245.303 279.182 245.198 279.182C245.094 279.182 245.004 278.854 245.004 278.444C245.004 278.034 245.094 277.706 245.198 277.706Z" fill="white"/>
<g opacity="0.3">
<path d="M264.422 220.819H252.216V238.501H264.422V220.819Z" fill="black"/>
</g>
<path d="M253.933 220.185C254.037 220.185 254.127 220.312 254.127 220.469C254.127 220.625 254.037 220.752 253.933 220.752C253.828 220.752 253.739 220.625 253.739 220.469C253.739 220.312 253.828 220.185 253.933 220.185Z" fill="white"/>
<path d="M256.27 220.185C256.374 220.185 256.464 220.312 256.464 220.469C256.464 220.625 256.374 220.752 256.27 220.752C256.165 220.752 256.076 220.625 256.076 220.469C256.076 220.312 256.165 220.185 256.27 220.185Z" fill="white"/>
<path d="M258.599 220.185C258.703 220.185 258.793 220.312 258.793 220.469C258.793 220.625 258.703 220.752 258.599 220.752C258.494 220.752 258.405 220.625 258.405 220.469C258.405 220.312 258.494 220.185 258.599 220.185Z" fill="white"/>
<path d="M260.936 220.185C261.04 220.185 261.13 220.312 261.13 220.469C261.13 220.625 261.04 220.752 260.936 220.752C260.831 220.752 260.741 220.625 260.741 220.469C260.741 220.312 260.831 220.185 260.936 220.185Z" fill="white"/>
<path d="M263.265 220.185C263.369 220.185 263.459 220.312 263.459 220.469C263.459 220.625 263.369 220.752 263.265 220.752C263.16 220.752 263.071 220.625 263.071 220.469C263.071 220.312 263.16 220.185 263.265 220.185Z" fill="white"/>
<path d="M253.933 238.568C254.037 238.568 254.127 238.695 254.127 238.852C254.127 239.008 254.037 239.135 253.933 239.135C253.828 239.135 253.739 239.008 253.739 238.852C253.739 238.695 253.828 238.568 253.933 238.568Z" fill="white"/>
<path d="M256.27 238.568C256.374 238.568 256.464 238.695 256.464 238.852C256.464 239.008 256.374 239.135 256.27 239.135C256.165 239.135 256.076 239.008 256.076 238.852C256.076 238.695 256.165 238.568 256.27 238.568Z" fill="white"/>
<path d="M258.599 238.568C258.703 238.568 258.793 238.695 258.793 238.852C258.793 239.008 258.703 239.135 258.599 239.135C258.494 239.135 258.405 239.008 258.405 238.852C258.405 238.695 258.494 238.568 258.599 238.568Z" fill="white"/>
<path d="M260.936 238.568C261.04 238.568 261.13 238.695 261.13 238.852C261.13 239.008 261.04 239.135 260.936 239.135C260.831 239.135 260.741 239.008 260.741 238.852C260.741 238.695 260.831 238.568 260.936 238.568Z" fill="white"/>
<path d="M263.265 238.568C263.369 238.568 263.459 238.695 263.459 238.852C263.459 239.008 263.369 239.135 263.265 239.135C263.16 239.135 263.071 239.008 263.071 238.852C263.071 238.695 263.16 238.568 263.265 238.568Z" fill="white"/>
<path d="M193.186 222.146H242.428V224.458H193.163L193.186 222.146Z" fill="#F5F5F5"/>
<path d="M260.182 136.205C260.182 136.839 259.666 137.354 259.032 137.354C258.397 137.354 257.882 136.839 257.882 136.205C257.882 135.571 258.397 135.057 259.032 135.057C259.666 135.057 260.182 135.571 260.182 136.205Z" fill="#F5F5F5"/>
<path d="M253.366 147.563C253.366 148.197 252.85 148.712 252.216 148.712C251.581 148.712 251.066 148.197 251.066 147.563C251.066 146.929 251.581 146.415 252.216 146.415C252.85 146.415 253.366 146.929 253.366 147.563Z" fill="#F5F5F5"/>
<path d="M251.066 155.386C251.021 154.752 251.499 154.2 252.134 154.156C252.768 154.111 253.321 154.588 253.366 155.222C253.41 155.856 252.933 156.408 252.298 156.453C251.663 156.497 251.111 156.02 251.066 155.386Z" fill="#F5F5F5"/>
<path d="M225.392 90.7513H211.29V91.4382H225.392V90.7513Z" fill="#F5F5F5"/>
<path d="M213.231 70.228H211.29V77.3127H213.231V70.228Z" fill="#F5F5F5"/>
<path d="M222.048 138.39H220.853V187.073H222.048V138.39Z" fill="#F5F5F5"/>
<g opacity="0.1">
<path d="M284.422 256.473V270.039L260.935 290.592H239.106L248.199 277.511H216.366L234.605 293.896H264.422L288.453 272.448L300.921 261.567V255.407L284.422 256.473Z" fill="black"/>
</g>
<path d="M185.907 304.978L95.7903 304.926C84.9504 304.926 76.1709 296.141 76.1709 285.312L76.2157 59.6236C76.2157 48.7877 85.0101 40.0101 95.8575 40.0176L185.974 40.0698C196.814 40.0698 205.593 48.8548 205.593 59.6832L205.549 285.372C205.549 296.208 196.754 304.986 185.907 304.978Z" fill="#455A64"/>
<path d="M185.884 48.049H168.415C166.071 48.0341 164.175 50.0178 164.175 52.4639V55.6334C164.175 58.0795 162.271 60.0632 159.927 60.0632L125.869 60.0408C123.525 60.0408 121.629 58.0571 121.629 55.611V52.4415C121.629 49.9955 119.732 48.0117 117.388 48.0117H111.244L95.9545 47.9968C88.3621 47.9968 82.203 54.1419 82.1956 61.7262L82.1508 282.016C82.1508 289.6 88.3024 295.745 95.8874 295.753L185.825 295.805C193.417 295.805 199.576 289.66 199.584 282.076L199.629 61.7859C199.629 54.2015 193.477 48.0565 185.892 48.049H185.884Z" fill="#EBEBEB"/>
<path d="M103.92 57.0432H86.451C84.1068 57.0357 82.2105 59.012 82.2105 61.4581V64.6275C82.2105 67.0736 80.3068 69.0573 77.9626 69.0573L43.9048 69.035C41.5607 69.035 39.6644 67.0512 39.6644 64.6052V61.4357C39.6644 58.9896 37.7682 57.0059 35.424 57.0059H29.2799L13.9904 56.991C6.39797 56.991 0.238905 63.136 0.23144 70.7204L0.186646 291.01C0.186646 298.594 6.33825 304.739 13.9232 304.747L103.861 304.799C111.453 304.799 117.612 298.654 117.62 291.07L117.664 70.78C117.664 63.1957 111.513 57.0506 103.928 57.0432H103.92Z" fill="white"/>
<path d="M103.92 57.043C103.92 57.043 104.077 57.043 104.391 57.0579C104.704 57.0878 105.175 57.0579 105.787 57.1623C107.004 57.304 108.863 57.6993 110.945 58.9447C111.998 59.5413 113.066 60.3915 114.081 61.4803C115.089 62.5765 116.029 63.9413 116.701 65.582C117.381 67.2152 117.746 69.1243 117.732 71.1602C117.732 73.1887 117.732 75.3439 117.739 77.6334C117.747 95.9343 117.769 122.409 117.784 155.125C117.784 187.842 117.799 226.8 117.806 270.054C117.806 275.461 117.806 280.935 117.806 286.476C117.806 287.863 117.806 289.25 117.806 290.637C117.791 292.032 117.702 293.471 117.276 294.828C116.88 296.185 116.321 297.513 115.522 298.699C114.73 299.884 113.76 300.958 112.655 301.876C110.423 303.665 107.616 304.814 104.712 304.956C101.83 305.038 98.9632 304.978 96.074 304.993C90.2957 304.993 84.4577 304.993 78.5674 304.985C66.7867 304.985 54.7971 304.97 42.6357 304.97C36.5513 304.97 30.4221 304.97 24.2555 304.963C21.1723 304.963 18.0741 304.963 14.9759 304.963C11.8627 305.12 8.63016 304.299 6.02469 302.495C3.40429 300.697 1.47818 297.99 0.574847 294.977C0.0895868 293.478 0 291.875 0 290.331C0 288.787 0 287.244 0 285.7C0 279.533 0 273.41 0 267.332C0 255.176 1.59498e-06 243.199 0.00746713 231.424C0.0149327 207.88 0.0223973 185.179 0.0298628 163.545C0.0373284 141.918 0.0522601 121.357 0.0597257 102.124C0.0597257 92.5038 0.0746571 83.2191 0.0746571 74.285C0.0746571 73.1663 0.0746571 72.0551 0.0746571 70.9514C0.0821227 70.3996 0.119449 69.8402 0.149311 69.2884C0.246363 68.744 0.291157 68.1847 0.433003 67.6552C0.933194 65.5074 1.93357 63.4938 3.32216 61.8382C4.72568 60.1901 6.48755 58.885 8.42113 58.0274C10.3547 57.1549 12.4824 56.8491 14.5354 56.8715C18.6265 56.8715 22.6281 56.879 26.5176 56.8864C28.4661 56.8864 30.3847 56.8864 32.281 56.8864C33.2291 56.8864 34.1698 56.8864 35.103 56.8864C36.0511 56.8417 37.0291 57.0952 37.8055 57.6396C38.5819 58.184 39.1792 58.9671 39.4852 59.8471C39.8361 60.7271 39.754 61.6816 39.7615 62.5616C39.7615 63.0091 39.7615 63.4565 39.7615 63.8965C39.7615 64.344 39.7465 64.784 39.8063 65.2091C39.9182 66.0592 40.2766 66.8721 40.829 67.506C41.374 68.1474 42.128 68.6097 42.9269 68.8111C43.33 68.9155 43.7406 68.9379 44.1661 68.9304C44.5917 68.9304 45.0097 68.9304 45.4353 68.9304C47.115 68.9304 48.7724 68.9304 50.3999 68.9304C56.9023 68.9379 62.9569 68.9453 68.5262 68.9602C71.3108 68.9602 73.976 68.9677 76.5218 68.9752C77.1489 68.9677 77.7984 69.005 78.3956 68.9528C79.0003 68.8857 79.5752 68.6769 80.0754 68.3636C81.0832 67.7372 81.7701 66.6931 82.0015 65.5969C82.1284 65.045 82.106 64.4857 82.106 63.9264C82.106 63.3671 82.106 62.8226 82.106 62.2857C82.106 61.7488 82.0761 61.2118 82.1807 60.6823C82.2703 60.1603 82.4494 59.6606 82.6958 59.2132C83.1885 58.3108 83.9948 57.6247 84.8907 57.2742C85.794 56.879 86.757 56.9983 87.623 56.9834C91.1468 56.9908 94.133 56.9983 96.5444 57.0057C98.9557 57.0132 100.792 57.0206 102.032 57.0281C103.271 57.0281 103.898 57.0505 103.898 57.0505C103.898 57.0505 103.263 57.0654 102.032 57.0728C100.792 57.0728 98.9557 57.0803 96.5444 57.0878C94.133 57.0878 91.1468 57.0952 87.623 57.1027C86.7496 57.1251 85.8089 57.0132 84.9355 57.3935C84.0695 57.7366 83.293 58.4003 82.8078 59.2803C82.5689 59.7203 82.3972 60.205 82.3076 60.7122C82.2105 61.2193 82.2479 61.7488 82.2404 62.2932C82.2404 62.8301 82.2404 63.382 82.2404 63.9338C82.2404 64.4857 82.2628 65.0599 82.1359 65.6342C81.897 66.7677 81.1952 67.8491 80.1426 68.5053C79.62 68.8335 79.0227 69.0497 78.3956 69.1243C77.7611 69.1765 77.1414 69.1392 76.5069 69.1541C73.9686 69.1541 71.3034 69.1541 68.5113 69.1541C62.942 69.1541 56.8874 69.1541 50.3849 69.1541C48.7574 69.1541 47.1076 69.1541 45.4203 69.1541C45.0023 69.1541 44.5767 69.1541 44.1512 69.1541C43.7331 69.1616 43.2777 69.1318 42.8597 69.0274C42.0086 68.8185 41.2172 68.3338 40.6349 67.6552C40.0452 66.984 39.6644 66.1264 39.5524 65.2389C39.4927 64.784 39.5076 64.3365 39.5076 63.8965C39.5076 63.4491 39.5076 63.0091 39.5076 62.5616C39.4927 61.6667 39.5748 60.7644 39.2389 59.9291C38.9477 59.0939 38.3803 58.3556 37.6487 57.841C36.9096 57.3264 36.0063 57.0878 35.0806 57.1325H32.2586C30.3624 57.1325 28.4437 57.1325 26.4952 57.1325C22.5982 57.1325 18.6041 57.1325 14.513 57.1325C12.4824 57.1101 10.4144 57.4159 8.51072 58.2735C6.61447 59.1088 4.88993 60.3915 3.51627 62.0098C2.15754 63.6355 1.17956 65.6043 0.686831 67.7074C0.544986 68.2294 0.507656 68.7738 0.410604 69.3108C0.380742 69.8552 0.343415 70.3921 0.33595 70.944C0.33595 72.0477 0.33595 73.1589 0.33595 74.2775C0.33595 83.2042 0.33595 92.4964 0.33595 102.117C0.33595 121.35 0.33595 141.91 0.33595 163.537C0.33595 185.172 0.33595 207.873 0.33595 231.416C0.33595 243.184 0.33595 255.169 0.33595 267.325C0.33595 273.402 0.33595 279.525 0.33595 285.693C0.33595 287.236 0.33595 288.78 0.33595 290.324C0.33595 291.86 0.425536 293.396 0.895865 294.858C1.76933 297.781 3.65065 300.421 6.1964 302.166C8.74215 303.926 11.8403 304.724 14.9311 304.568C18.0367 304.568 21.1275 304.568 24.2107 304.568C30.3773 304.568 36.5065 304.575 42.5909 304.583C54.7597 304.59 66.7494 304.598 78.5226 304.605C84.4129 304.605 90.2509 304.613 96.0292 304.62C98.9184 304.605 101.808 304.665 104.644 304.583C107.474 304.448 110.191 303.33 112.371 301.592C113.446 300.697 114.387 299.653 115.163 298.505C115.94 297.349 116.485 296.059 116.873 294.739C117.284 293.411 117.373 292.032 117.388 290.644C117.388 289.25 117.388 287.863 117.388 286.483C117.388 280.942 117.388 275.468 117.388 270.062C117.411 226.808 117.433 187.849 117.455 155.133C117.485 122.416 117.515 95.9418 117.53 77.6409C117.53 75.3514 117.53 73.1961 117.537 71.1677C117.56 69.1467 117.202 67.2599 116.537 65.6342C115.88 64.0084 114.954 62.6437 113.954 61.5549C112.954 60.4661 111.894 59.6159 110.848 59.0193C108.78 57.7739 106.936 57.3712 105.727 57.2145C105.122 57.0952 104.652 57.1251 104.338 57.0878C104.025 57.0654 103.868 57.0505 103.868 57.0505L103.92 57.043Z" fill="#263238"/>
<path d="M106.578 79.2892C106.578 79.3489 104.309 79.4161 101.501 79.4385C98.6945 79.4609 96.4249 79.4385 96.4249 79.3713C96.4249 79.3116 98.6945 79.2444 101.501 79.222C104.301 79.1996 106.578 79.222 106.578 79.2892Z" fill="#263238"/>
<path d="M106.6 81.8844C106.6 81.9442 104.331 82.0113 101.524 82.0337C98.7169 82.0561 96.4473 82.0337 96.4473 81.9666C96.4473 81.9068 98.7169 81.8396 101.524 81.8172C104.323 81.7948 106.6 81.8172 106.6 81.8844Z" fill="#263238"/>
<path d="M106.623 84.4796C106.623 84.5394 104.353 84.6066 101.546 84.629C98.7392 84.6514 96.4697 84.629 96.4697 84.5618C96.4697 84.502 98.7392 84.4348 101.546 84.4125C104.346 84.3901 106.623 84.4124 106.623 84.4796Z" fill="#263238"/>
<path d="M14.2518 87.44C14.2518 87.44 14.3264 87.4326 14.4608 87.4251C14.625 87.4251 14.8191 87.4102 15.0506 87.4028C15.603 87.3878 16.3272 87.3729 17.2156 87.3506L17.1559 87.4102C17.1484 86.9329 17.1409 86.4034 17.1335 85.8367C17.1335 85.5458 17.1111 85.2699 17.1335 84.9343C17.1932 84.5987 17.4918 84.3004 17.8576 84.2631C18.2085 84.2631 18.5146 84.2407 18.8953 84.2631C19.2835 84.3079 19.6195 84.6882 19.6046 85.0984C19.612 85.8292 19.6195 86.5973 19.6269 87.3878L19.5299 87.2909C20.4108 87.2834 21.3216 87.276 22.2623 87.2611L22.1578 87.3655C22.1503 86.2617 22.1354 85.1282 22.1279 83.9648C22.1279 83.674 22.1279 83.3831 22.1279 83.0997C22.1279 82.8313 21.9637 82.6523 21.7472 82.4509C21.344 82.0557 20.9409 81.6604 20.5527 81.2726C20.1645 80.8848 19.7763 80.5045 19.403 80.1391C19.2163 79.9526 19.0297 79.7662 18.8431 79.5872C18.649 79.4008 18.4997 79.2143 18.2757 79.1621C18.0592 79.1025 17.8203 79.1472 17.6486 79.2814C17.4843 79.4231 17.3052 79.617 17.1409 79.7811C16.805 80.1167 16.4765 80.4523 16.1629 80.773C15.5433 81.4143 14.9013 81.996 14.4384 82.5479C14.2443 82.8536 14.3115 83.2265 14.304 83.5696C14.304 83.9051 14.304 84.2258 14.304 84.5316C14.304 85.1207 14.304 85.6353 14.2966 86.0828C14.2966 86.478 14.2891 86.8062 14.2891 87.0746C14.2891 87.3058 14.2816 87.4251 14.2742 87.4326C14.2742 87.4326 14.2592 87.3282 14.2518 87.1045C14.2443 86.8434 14.2368 86.5153 14.2219 86.1275C14.2144 85.6801 14.1995 85.158 14.1846 84.5614C14.1846 84.2557 14.1696 83.9275 14.1696 83.577C14.1696 83.4055 14.1696 83.2265 14.1622 83.0401C14.1622 82.8462 14.207 82.6448 14.3115 82.4658C14.8191 81.8469 15.4238 81.295 16.0435 80.6387C16.357 80.3181 16.6855 79.9825 17.014 79.6394C17.1857 79.4679 17.335 79.2964 17.5441 79.1174C17.7606 78.9459 18.0666 78.8862 18.3354 78.9608C18.6266 79.0279 18.8132 79.2665 18.9924 79.4306C19.179 79.6096 19.3657 79.796 19.5523 79.9825C19.933 80.3553 20.3138 80.7282 20.7094 81.116C21.1051 81.5038 21.5008 81.8916 21.9039 82.2869C22.001 82.3913 22.113 82.4733 22.21 82.615C22.2996 82.7492 22.3519 82.9133 22.3519 83.0774C22.3519 83.3682 22.3519 83.659 22.3593 83.9499C22.3668 85.1133 22.3743 86.2543 22.3817 87.3506V87.455H22.2772C21.3366 87.455 20.4183 87.4699 19.5448 87.4699H19.4478V87.3729C19.4478 86.5824 19.4403 85.8143 19.4328 85.0834C19.4478 84.7553 19.1865 84.4645 18.8804 84.4197C18.5668 84.4048 18.1936 84.4197 17.8875 84.4197C17.5963 84.4421 17.35 84.6807 17.2977 84.9492C17.2678 85.2251 17.2977 85.5458 17.2828 85.8218C17.2828 86.3885 17.2828 86.9106 17.2828 87.3953V87.455H17.223C16.3197 87.455 15.5806 87.44 15.0207 87.44C14.7967 87.44 14.6101 87.44 14.4459 87.4326C14.3189 87.4326 14.2518 87.4326 14.2592 87.4251L14.2518 87.44Z" fill="#263238"/>
<path d="M98.6945 101.147H17.5291C13.4678 101.147 10.1755 104.436 10.1755 108.493V111.222C10.1755 115.279 13.4678 118.568 17.5291 118.568H98.6945C102.756 118.568 106.048 115.279 106.048 111.222V108.493C106.048 104.436 102.756 101.147 98.6945 101.147Z" fill="#F5F5F5"/>
<path d="M98.6944 118.568C98.6944 118.568 98.8811 118.546 99.2469 118.523C99.6127 118.494 100.15 118.412 100.83 118.218C101.501 117.994 102.315 117.643 103.136 117.009C103.958 116.383 104.771 115.466 105.324 114.243C105.593 113.631 105.817 112.953 105.899 112.214C105.996 111.483 105.966 110.693 105.966 109.865C105.951 109.045 106.003 108.18 105.854 107.315C105.705 106.45 105.398 105.57 104.906 104.764C103.935 103.153 102.196 101.796 100.068 101.408C99.0154 101.207 97.8882 101.304 96.7385 101.281C95.5888 101.281 94.4092 101.281 93.1923 101.281C73.8192 101.296 47.0777 101.311 17.544 101.334C15.7373 101.334 13.9605 102.035 12.6615 103.258C11.3551 104.466 10.5339 106.159 10.392 107.911C10.3323 108.776 10.3771 109.694 10.3622 110.581C10.3398 111.483 10.3845 112.334 10.6309 113.169C11.0938 114.832 12.1837 116.294 13.6022 117.226C14.3114 117.696 15.1028 118.031 15.924 118.218C16.7452 118.412 17.5813 118.412 18.4473 118.404C20.1569 118.404 21.8516 118.404 23.5239 118.404C26.8759 118.404 30.1533 118.404 33.356 118.404C46.152 118.419 57.6788 118.434 67.369 118.441C77.0444 118.464 84.8757 118.486 90.2957 118.501C92.9982 118.516 95.096 118.523 96.5294 118.531C97.2312 118.538 97.7762 118.546 98.1494 118.546C98.5153 118.546 98.7019 118.561 98.7019 118.561C98.7019 118.561 98.5153 118.576 98.1494 118.576C97.7762 118.576 97.2312 118.583 96.5294 118.591C95.096 118.598 92.9982 118.613 90.2957 118.62C84.8682 118.635 77.0444 118.65 67.369 118.68C57.6862 118.687 46.1594 118.702 33.356 118.717C30.1533 118.717 26.8759 118.717 23.5239 118.717C21.8516 118.717 20.1569 118.717 18.4473 118.717C17.6037 118.717 16.7079 118.725 15.8493 118.523C14.9908 118.329 14.1546 117.979 13.4156 117.487C11.9225 116.51 10.7877 114.981 10.295 113.229C10.0337 112.363 9.98888 111.424 10.0113 110.544C10.0262 109.649 9.98141 108.769 10.0411 107.844C10.1904 106.01 11.049 104.227 12.4226 102.959C13.7888 101.684 15.6552 100.938 17.544 100.946C47.0777 100.968 73.8267 100.983 93.1923 100.998C94.4017 100.998 95.5813 100.998 96.7385 100.998C97.8882 101.02 99.0154 100.931 100.113 101.14C102.3 101.55 104.085 102.952 105.077 104.615C105.578 105.45 105.899 106.353 106.041 107.24C106.19 108.135 106.13 109.008 106.138 109.82C106.138 110.641 106.16 111.431 106.055 112.184C105.966 112.938 105.727 113.631 105.451 114.25C104.876 115.496 104.04 116.42 103.204 117.047C102.367 117.681 101.539 118.031 100.852 118.24C100.158 118.426 99.6201 118.501 99.2543 118.516C98.8885 118.531 98.7019 118.523 98.7019 118.523L98.6944 118.568Z" fill="#263238"/>
<path d="M100.173 109.447C100.173 109.447 100.143 109.164 100.008 108.694C99.8741 108.232 99.5531 107.553 98.8513 107.039C98.1719 106.524 97.067 106.233 95.9994 106.636C94.9393 107.001 94.0286 108.127 94.036 109.447C94.0211 110.76 94.9393 111.886 95.9994 112.259C97.067 112.662 98.1794 112.378 98.8513 111.856C99.5531 111.342 99.8741 110.663 100.008 110.201C100.143 109.731 100.143 109.447 100.173 109.447C100.188 109.447 100.195 109.515 100.195 109.649C100.195 109.783 100.195 109.984 100.135 110.23C100.038 110.723 99.7322 111.468 98.9931 112.05C98.2839 112.639 97.067 112.99 95.8725 112.557C94.6855 112.169 93.6553 110.909 93.6702 109.44C93.6553 107.963 94.693 106.711 95.8725 106.323C97.067 105.898 98.2764 106.248 98.9931 106.83C99.7322 107.419 100.038 108.157 100.135 108.649C100.188 108.903 100.203 109.097 100.195 109.231C100.195 109.365 100.18 109.433 100.173 109.433V109.447Z" fill="#263238"/>
<path d="M101.912 114.884C101.837 114.951 101.151 114.317 100.367 113.475C99.5829 112.632 99.008 111.894 99.0827 111.827C99.1573 111.759 99.8442 112.393 100.628 113.236C101.412 114.079 101.987 114.817 101.912 114.884Z" fill="#263238"/>
<path d="M23.1208 108.12H21.4112V107.673H25.3455V108.12H23.6359V112.535H23.1208V108.12Z" fill="#E0E0E0"/>
<path d="M28.8618 110.864H25.8009C25.8531 111.625 26.4429 112.132 27.2417 112.132C27.6897 112.132 28.0853 111.976 28.3616 111.655L28.6378 111.976C28.3093 112.363 27.8017 112.572 27.2268 112.572C26.0846 112.572 25.3082 111.797 25.3082 110.708C25.3082 109.619 26.0697 108.851 27.0924 108.851C28.1152 108.851 28.8618 109.611 28.8618 110.708C28.8618 110.753 28.8618 110.805 28.8618 110.857V110.864ZM25.8009 110.499H28.3914C28.3317 109.783 27.8091 109.283 27.0924 109.283C26.3757 109.283 25.8606 109.783 25.8009 110.499Z" fill="#E0E0E0"/>
<path d="M32.1018 112.535L30.9446 111.006L29.78 112.535H29.2275L30.6759 110.663L29.3022 108.888H29.8546L30.9521 110.32L32.0495 108.888H32.5945L31.2208 110.663L32.6841 112.535H32.1242H32.1018Z" fill="#E0E0E0"/>
<path d="M35.4091 112.311C35.215 112.483 34.9238 112.565 34.6401 112.565C33.9533 112.565 33.5726 112.177 33.5726 111.498V109.291H32.9156V108.873H33.5726V108.075H34.0653V108.873H35.1776V109.291H34.0653V111.468C34.0653 111.901 34.2892 112.132 34.6999 112.132C34.9014 112.132 35.103 112.072 35.2448 111.946L35.4165 112.296L35.4091 112.311Z" fill="#E0E0E0"/>
<path d="M35.2001 133.051H14.2144V154.014H35.2001V133.051Z" fill="#E8505B"/>
<g opacity="0.4">
<path d="M35.2001 133.051H14.2144V154.014H35.2001V133.051Z" fill="black"/>
</g>
<path d="M75.5736 135.161C75.5736 135.258 68.556 135.341 59.9034 135.341C51.2509 135.341 44.2333 135.258 44.2333 135.161C44.2333 135.064 51.2509 134.982 59.9034 134.982C68.556 134.982 75.5736 135.064 75.5736 135.161Z" fill="#E8505B"/>
<path d="M100.561 141.582C100.561 141.679 87.9516 141.762 72.3934 141.762C56.8352 141.762 44.2259 141.679 44.2259 141.582C44.2259 141.485 56.8352 141.403 72.3934 141.403C87.9516 141.403 100.561 141.485 100.561 141.582Z" fill="#263238"/>
<path d="M99.9039 146.176C99.9039 146.273 87.4365 146.355 72.0724 146.355C56.7083 146.355 44.2334 146.273 44.2334 146.176C44.2334 146.079 56.6934 145.997 72.0724 145.997C87.4514 145.997 99.9039 146.079 99.9039 146.176Z" fill="#263238"/>
<path d="M77.0967 150.554C77.0967 150.651 69.7356 150.733 60.665 150.733C51.5944 150.733 44.2259 150.651 44.2259 150.554C44.2259 150.457 51.5869 150.375 60.665 150.375C69.7431 150.375 77.0967 150.457 77.0967 150.554Z" fill="#263238"/>
<path d="M35.2001 167.833H14.2144V188.796H35.2001V167.833Z" fill="#E8505B"/>
<path d="M75.5736 170.085C75.5736 170.182 68.556 170.264 59.9034 170.264C51.2509 170.264 44.2333 170.182 44.2333 170.085C44.2333 169.988 51.2509 169.906 59.9034 169.906C68.556 169.906 75.5736 169.988 75.5736 170.085Z" fill="#E8505B"/>
<path d="M100.561 176.514C100.561 176.611 87.9516 176.693 72.3934 176.693C56.8352 176.693 44.2259 176.611 44.2259 176.514C44.2259 176.417 56.8352 176.335 72.3934 176.335C87.9516 176.335 100.561 176.417 100.561 176.514Z" fill="#263238"/>
<path d="M99.9039 181.1C99.9039 181.197 87.4365 181.279 72.0724 181.279C56.7083 181.279 44.2334 181.197 44.2334 181.1C44.2334 181.003 56.6934 180.921 72.0724 180.921C87.4514 180.921 99.9039 181.003 99.9039 181.1Z" fill="#263238"/>
<path d="M77.0967 185.478C77.0967 185.575 69.7356 185.657 60.665 185.657C51.5944 185.657 44.2259 185.575 44.2259 185.478C44.2259 185.381 51.5869 185.298 60.665 185.298C69.7431 185.298 77.0967 185.381 77.0967 185.478Z" fill="#263238"/>
<path d="M35.2001 202.757H14.2144V223.72H35.2001V202.757Z" fill="#E8505B"/>
<path d="M75.5736 205.009C75.5736 205.106 68.556 205.188 59.9034 205.188C51.2509 205.188 44.2333 205.106 44.2333 205.009C44.2333 204.912 51.2509 204.83 59.9034 204.83C68.556 204.83 75.5736 204.912 75.5736 205.009Z" fill="#E8505B"/>
<path d="M100.561 211.437C100.561 211.535 87.9516 211.617 72.3934 211.617C56.8352 211.617 44.2259 211.535 44.2259 211.437C44.2259 211.34 56.8352 211.258 72.3934 211.258C87.9516 211.258 100.561 211.34 100.561 211.437Z" fill="#263238"/>
<path d="M99.9039 216.024C99.9039 216.121 87.4365 216.203 72.0724 216.203C56.7083 216.203 44.2334 216.121 44.2334 216.024C44.2334 215.927 56.6934 215.845 72.0724 215.845C87.4514 215.845 99.9039 215.927 99.9039 216.024Z" fill="#263238"/>
<path d="M77.0967 220.402C77.0967 220.499 69.7356 220.581 60.665 220.581C51.5944 220.581 44.2259 220.499 44.2259 220.402C44.2259 220.305 51.5869 220.222 60.665 220.222C69.7431 220.222 77.0967 220.305 77.0967 220.402Z" fill="#263238"/>
<path d="M35.2001 237.681H14.2144V258.644H35.2001V237.681Z" fill="#E8505B"/>
<path d="M75.5736 239.933C75.5736 240.03 68.556 240.112 59.9034 240.112C51.2509 240.112 44.2333 240.03 44.2333 239.933C44.2333 239.836 51.2509 239.754 59.9034 239.754C68.556 239.754 75.5736 239.836 75.5736 239.933Z" fill="#455A64"/>
<path d="M100.561 246.361C100.561 246.458 87.9516 246.54 72.3934 246.54C56.8352 246.54 44.2259 246.458 44.2259 246.361C44.2259 246.264 56.8352 246.182 72.3934 246.182C87.9516 246.182 100.561 246.264 100.561 246.361Z" fill="#263238"/>
<path d="M99.9039 250.948C99.9039 251.045 87.4365 251.127 72.0724 251.127C56.7083 251.127 44.2334 251.045 44.2334 250.948C44.2334 250.851 56.6934 250.769 72.0724 250.769C87.4514 250.769 99.9039 250.851 99.9039 250.948Z" fill="#263238"/>
<path d="M77.0967 255.325C77.0967 255.422 69.7356 255.505 60.665 255.505C51.5944 255.505 44.2259 255.422 44.2259 255.325C44.2259 255.228 51.5869 255.146 60.665 255.146C69.7431 255.146 77.0967 255.228 77.0967 255.325Z" fill="#263238"/>
<path d="M35.2001 272.604H14.2144V293.568H35.2001V272.604Z" fill="#E0E0E0"/>
<path d="M75.5736 274.857C75.5736 274.954 68.556 275.036 59.9034 275.036C51.2509 275.036 44.2333 274.954 44.2333 274.857C44.2333 274.76 51.2509 274.678 59.9034 274.678C68.556 274.678 75.5736 274.76 75.5736 274.857Z" fill="#E0E0E0"/>
<path d="M100.561 281.285C100.561 281.382 87.9516 281.465 72.3934 281.465C56.8352 281.465 44.2259 281.382 44.2259 281.285C44.2259 281.188 56.8352 281.106 72.3934 281.106C87.9516 281.106 100.561 281.188 100.561 281.285Z" fill="#EBEBEB"/>
<path d="M99.9039 285.872C99.9039 285.969 87.4365 286.051 72.0724 286.051C56.7083 286.051 44.2334 285.969 44.2334 285.872C44.2334 285.774 56.6934 285.692 72.0724 285.692C87.4514 285.692 99.9039 285.774 99.9039 285.872Z" fill="#EBEBEB"/>
<path d="M77.0967 290.25C77.0967 290.347 69.7356 290.429 60.665 290.429C51.5944 290.429 44.2259 290.347 44.2259 290.25C44.2259 290.152 51.5869 290.07 60.665 290.07C69.7431 290.07 77.0967 290.152 77.0967 290.25Z" fill="#EBEBEB"/>
<g opacity="0.3">
<path d="M35.2001 237.681H14.2144V258.644H35.2001V237.681Z" fill="black"/>
</g>
<g opacity="0.3">
<path d="M35.2001 167.833H14.2144V188.796H35.2001V167.833Z" fill="black"/>
</g>
</svg>
